<svg width="117" height="89" viewBox="0 0 117 89" fill="none" xmlns="http://www.w3.org/2000/svg">
<path d="M0.860795 73V64.2727H6.4517V65.598H2.44176V67.9673H6.06818V69.2926H2.44176V73H0.860795ZM9.36648 64.2727V73H7.82386V64.2727H9.36648ZM12.8363 73.1321C12.4215 73.1321 12.0479 73.0582 11.7156 72.9105C11.386 72.7599 11.1246 72.5384 10.9315 72.2457C10.7411 71.9531 10.646 71.5923 10.646 71.1634C10.646 70.794 10.7141 70.4886 10.8505 70.2472C10.9869 70.0057 11.1729 69.8125 11.4087 69.6676C11.6445 69.5227 11.9102 69.4134 12.2056 69.3395C12.5039 69.2628 12.8121 69.2074 13.1303 69.1733C13.5138 69.1335 13.8249 69.098 14.0636 69.0668C14.3022 69.0327 14.4755 68.9815 14.5835 68.9134C14.6942 68.8423 14.7496 68.733 14.7496 68.5852V68.5597C14.7496 68.2386 14.6545 67.9901 14.4641 67.8139C14.2738 67.6378 13.9996 67.5497 13.6417 67.5497C13.2638 67.5497 12.9641 67.6321 12.7425 67.7969C12.5238 67.9616 12.3761 68.1562 12.2994 68.3807L10.859 68.1761C10.9727 67.7784 11.1602 67.446 11.4215 67.179C11.6829 66.9091 12.0025 66.7074 12.3803 66.5739C12.7582 66.4375 13.1758 66.3693 13.6332 66.3693C13.9485 66.3693 14.2624 66.4062 14.5749 66.4801C14.8874 66.554 15.1729 66.6761 15.4315 66.8466C15.69 67.0142 15.8974 67.2429 16.0536 67.5327C16.2127 67.8224 16.2923 68.1847 16.2923 68.6193V73H14.8093V72.1009H14.7582C14.6644 72.2827 14.5323 72.4531 14.3619 72.6122C14.1942 72.7685 13.9826 72.8949 13.7269 72.9915C13.4741 73.0852 13.1772 73.1321 12.8363 73.1321ZM13.2369 71.9986C13.5465 71.9986 13.815 71.9375 14.0423 71.8153C14.2695 71.6903 14.4442 71.5256 14.5664 71.321C14.6914 71.1165 14.7539 70.8935 14.7539 70.652V69.8807C14.7056 69.9205 14.6232 69.9574 14.5067 69.9915C14.3931 70.0256 14.2653 70.0554 14.1232 70.081C13.9812 70.1065 13.8406 70.1293 13.7013 70.1491C13.5621 70.169 13.4414 70.1861 13.3391 70.2003C13.109 70.2315 12.9031 70.2827 12.7212 70.3537C12.5394 70.4247 12.396 70.5241 12.2908 70.652C12.1857 70.777 12.1332 70.9389 12.1332 71.1378C12.1332 71.4219 12.2369 71.6364 12.4442 71.7812C12.6516 71.9261 12.9158 71.9986 13.2369 71.9986ZM21.1119 66.4545V67.6477H17.3491V66.4545H21.1119ZM18.2781 64.8864H19.8207V71.0312C19.8207 71.2386 19.8519 71.3977 19.9144 71.5085C19.9798 71.6165 20.065 71.6903 20.1701 71.7301C20.2752 71.7699 20.3917 71.7898 20.5195 71.7898C20.6161 71.7898 20.7042 71.7827 20.7837 71.7685C20.8661 71.7543 20.9286 71.7415 20.9712 71.7301L21.2312 72.9361C21.1488 72.9645 21.0309 72.9957 20.8775 73.0298C20.7269 73.0639 20.5423 73.0838 20.3235 73.0895C19.9371 73.1009 19.5891 73.0426 19.2795 72.9148C18.9698 72.7841 18.7241 72.5824 18.5423 72.3097C18.3633 72.0369 18.2752 71.696 18.2781 71.2869V64.8864ZM30.1896 66.6719C30.1499 66.2997 29.9822 66.0099 29.6868 65.8026C29.3942 65.5952 29.0135 65.4915 28.5447 65.4915C28.2152 65.4915 27.9325 65.5412 27.6967 65.6406C27.4609 65.7401 27.2805 65.875 27.1555 66.0455C27.0305 66.2159 26.9666 66.4105 26.9638 66.6293C26.9638 66.8111 27.005 66.9687 27.0874 67.1023C27.1726 67.2358 27.2876 67.3494 27.4325 67.4432C27.5774 67.5341 27.7379 67.6108 27.9141 67.6733C28.0902 67.7358 28.2678 67.7884 28.4467 67.831L29.2649 68.0355C29.5945 68.1122 29.9112 68.2159 30.2152 68.3466C30.522 68.4773 30.7962 68.642 31.0376 68.8409C31.282 69.0398 31.4751 69.2798 31.6172 69.5611C31.7592 69.8423 31.8303 70.1719 31.8303 70.5497C31.8303 71.0611 31.6996 71.5114 31.4382 71.9006C31.1768 72.2869 30.799 72.5895 30.3047 72.8082C29.8132 73.0241 29.218 73.1321 28.5192 73.1321C27.8402 73.1321 27.2507 73.027 26.7507 72.8168C26.2536 72.6065 25.8643 72.2997 25.5831 71.8963C25.3047 71.4929 25.1541 71.0014 25.1314 70.4219H26.6868C26.7095 70.7259 26.8033 70.9787 26.968 71.1804C27.1328 71.3821 27.3473 71.5327 27.6115 71.6321C27.8786 71.7315 28.1768 71.7812 28.5064 71.7812C28.8501 71.7812 29.1513 71.7301 29.4098 71.6278C29.6712 71.5227 29.8757 71.3778 30.0234 71.1932C30.1712 71.0057 30.2464 70.7869 30.2493 70.5369C30.2464 70.3097 30.1797 70.1222 30.049 69.9744C29.9183 69.8239 29.7351 69.6989 29.4993 69.5994C29.2663 69.4972 28.9936 69.4062 28.6811 69.3267L27.6882 69.071C26.9695 68.8864 26.4013 68.6065 25.9837 68.2315C25.5689 67.8537 25.3615 67.3523 25.3615 66.7273C25.3615 66.2131 25.5007 65.7628 25.7791 65.3764C26.0604 64.9901 26.4425 64.6903 26.9254 64.4773C27.4084 64.2614 27.9553 64.1534 28.5661 64.1534C29.1854 64.1534 29.728 64.2614 30.1939 64.4773C30.6626 64.6903 31.0305 64.9872 31.2976 65.3679C31.5646 65.7457 31.7024 66.1804 31.7109 66.6719H30.1896ZM35.055 73.1321C34.6403 73.1321 34.2667 73.0582 33.9343 72.9105C33.6048 72.7599 33.3434 72.5384 33.1502 72.2457C32.9599 71.9531 32.8647 71.5923 32.8647 71.1634C32.8647 70.794 32.9329 70.4886 33.0692 70.2472C33.2056 70.0057 33.3917 69.8125 33.6275 69.6676C33.8633 69.5227 34.1289 69.4134 34.4244 69.3395C34.7227 69.2628 35.0309 69.2074 35.3491 69.1733C35.7326 69.1335 36.0437 69.098 36.2823 69.0668C36.521 69.0327 36.6942 68.9815 36.8022 68.9134C36.913 68.8423 36.9684 68.733 36.9684 68.5852V68.5597C36.9684 68.2386 36.8732 67.9901 36.6829 67.8139C36.4925 67.6378 36.2184 67.5497 35.8604 67.5497C35.4826 67.5497 35.1829 67.6321 34.9613 67.7969C34.7425 67.9616 34.5948 68.1562 34.5181 68.3807L33.0778 68.1761C33.1914 67.7784 33.3789 67.446 33.6403 67.179C33.9016 66.9091 34.2212 66.7074 34.5991 66.5739C34.9769 66.4375 35.3945 66.3693 35.8519 66.3693C36.1673 66.3693 36.4812 66.4062 36.7937 66.4801C37.1062 66.554 37.3917 66.6761 37.6502 66.8466C37.9087 67.0142 38.1161 67.2429 38.2724 67.5327C38.4315 67.8224 38.511 68.1847 38.511 68.6193V73H37.0281V72.1009H36.9769C36.8832 72.2827 36.7511 72.4531 36.5806 72.6122C36.413 72.7685 36.2013 72.8949 35.9457 72.9915C35.6928 73.0852 35.396 73.1321 35.055 73.1321ZM35.4556 71.9986C35.7653 71.9986 36.0337 71.9375 36.261 71.8153C36.4883 71.6903 36.663 71.5256 36.7852 71.321C36.9102 71.1165 36.9727 70.8935 36.9727 70.652V69.8807C36.9244 69.9205 36.842 69.9574 36.7255 69.9915C36.6119 70.0256 36.484 70.0554 36.342 70.081C36.1999 70.1065 36.0593 70.1293 35.9201 70.1491C35.7809 70.169 35.6602 70.1861 35.5579 70.2003C35.3278 70.2315 35.1218 70.2827 34.94 70.3537C34.7582 70.4247 34.6147 70.5241 34.5096 70.652C34.4045 70.777 34.3519 70.9389 34.3519 71.1378C34.3519 71.4219 34.4556 71.6364 34.663 71.7812C34.8704 71.9261 35.1346 71.9986 35.4556 71.9986ZM45.6744 66.4545L43.3434 73H41.6388L39.3079 66.4545H40.9528L42.457 71.3168H42.5252L44.0337 66.4545H45.6744ZM46.7418 73V66.4545H48.2844V73H46.7418ZM47.5174 65.5256C47.2731 65.5256 47.0629 65.4446 46.8867 65.2827C46.7106 65.1179 46.6225 64.9205 46.6225 64.6903C46.6225 64.4574 46.7106 64.2599 46.8867 64.098C47.0629 63.9332 47.2731 63.8509 47.5174 63.8509C47.7646 63.8509 47.9748 63.9332 48.1481 64.098C48.3242 64.2599 48.4123 64.4574 48.4123 64.6903C48.4123 64.9205 48.3242 65.1179 48.1481 65.2827C47.9748 65.4446 47.7646 65.5256 47.5174 65.5256ZM51.4134 69.1648V73H49.8707V66.4545H51.3452V67.5668H51.4219C51.5724 67.2003 51.8125 66.9091 52.142 66.6932C52.4744 66.4773 52.8849 66.3693 53.3736 66.3693C53.8253 66.3693 54.2188 66.4659 54.554 66.6591C54.892 66.8523 55.1534 67.1321 55.3381 67.4986C55.5256 67.8651 55.6179 68.3097 55.6151 68.8324V73H54.0724V69.071C54.0724 68.6335 53.9588 68.2912 53.7315 68.044C53.5071 67.7969 53.196 67.6733 52.7983 67.6733C52.5284 67.6733 52.2884 67.733 52.0781 67.8523C51.8707 67.9687 51.7074 68.1378 51.5881 68.3594C51.4716 68.581 51.4134 68.8494 51.4134 69.1648ZM60.0298 75.5909C59.4759 75.5909 59 75.5156 58.6023 75.3651C58.2045 75.2173 57.8849 75.0185 57.6435 74.7685C57.402 74.5185 57.2344 74.2415 57.1406 73.9375L58.5298 73.6009C58.5923 73.7287 58.6832 73.8551 58.8026 73.9801C58.9219 74.108 59.0824 74.2131 59.2841 74.2955C59.4886 74.3807 59.7457 74.4233 60.0554 74.4233C60.4929 74.4233 60.8551 74.3168 61.142 74.1037C61.429 73.8935 61.5724 73.5469 61.5724 73.0639V71.8239H61.4957C61.4162 71.983 61.2997 72.1463 61.1463 72.3139C60.9957 72.4815 60.7955 72.6222 60.5455 72.7358C60.2983 72.8494 59.9872 72.9062 59.6122 72.9062C59.1094 72.9062 58.6534 72.7884 58.2443 72.5526C57.8381 72.3139 57.5142 71.9588 57.2727 71.4872C57.0341 71.0128 56.9148 70.419 56.9148 69.706C56.9148 68.9872 57.0341 68.3807 57.2727 67.8864C57.5142 67.3892 57.8395 67.0128 58.2486 66.7571C58.6577 66.4986 59.1136 66.3693 59.6165 66.3693C60 66.3693 60.3153 66.4347 60.5625 66.5653C60.8125 66.6932 61.0114 66.848 61.1591 67.0298C61.3068 67.2088 61.419 67.3778 61.4957 67.5369H61.581V66.4545H63.1023V73.1065C63.1023 73.6662 62.9688 74.1293 62.7017 74.4957C62.4347 74.8622 62.0696 75.1364 61.6065 75.3182C61.1435 75.5 60.6179 75.5909 60.0298 75.5909ZM60.0426 71.696C60.3693 71.696 60.6477 71.6165 60.8778 71.4574C61.108 71.2983 61.2827 71.0696 61.402 70.7713C61.5213 70.473 61.581 70.1151 61.581 69.6974C61.581 69.2855 61.5213 68.9247 61.402 68.6151C61.2855 68.3054 61.1122 68.0653 60.8821 67.8949C60.6548 67.7216 60.375 67.6349 60.0426 67.6349C59.6989 67.6349 59.4119 67.7244 59.1818 67.9034C58.9517 68.0824 58.7784 68.3281 58.6619 68.6406C58.5455 68.9503 58.4872 69.3026 58.4872 69.6974C58.4872 70.098 58.5455 70.4489 58.6619 70.75C58.7813 71.0483 58.956 71.2812 59.1861 71.4489C59.419 71.6136 59.7045 71.696 60.0426 71.696ZM67.728 73V64.2727H71.0007C71.6712 64.2727 72.2337 64.3977 72.6882 64.6477C73.1456 64.8977 73.4908 65.2415 73.7237 65.679C73.9595 66.1136 74.0774 66.608 74.0774 67.1619C74.0774 67.7216 73.9595 68.2187 73.7237 68.6534C73.4879 69.0881 73.1399 69.4304 72.6797 69.6804C72.2195 69.9276 71.6527 70.0511 70.9794 70.0511H68.8104V68.7514H70.7663C71.1584 68.7514 71.4794 68.6832 71.7294 68.5469C71.9794 68.4105 72.1641 68.223 72.2834 67.9844C72.4055 67.7457 72.4666 67.4716 72.4666 67.1619C72.4666 66.8523 72.4055 66.5795 72.2834 66.3438C72.1641 66.108 71.978 65.9247 71.7251 65.794C71.4751 65.6605 71.1527 65.5938 70.7578 65.5938H69.3089V73H67.728ZM77.1488 73.1321C76.734 73.1321 76.3604 73.0582 76.0281 72.9105C75.6985 72.7599 75.4371 72.5384 75.244 72.2457C75.0536 71.9531 74.9585 71.5923 74.9585 71.1634C74.9585 70.794 75.0266 70.4886 75.163 70.2472C75.2994 70.0057 75.4854 69.8125 75.7212 69.6676C75.957 69.5227 76.2227 69.4134 76.5181 69.3395C76.8164 69.2628 77.1246 69.2074 77.4428 69.1733C77.8263 69.1335 78.1374 69.098 78.3761 69.0668C78.6147 69.0327 78.788 68.9815 78.896 68.9134C79.0067 68.8423 79.0621 68.733 79.0621 68.5852V68.5597C79.0621 68.2386 78.967 67.9901 78.7766 67.8139C78.5863 67.6378 78.3121 67.5497 77.9542 67.5497C77.5763 67.5497 77.2766 67.6321 77.055 67.7969C76.8363 67.9616 76.6886 68.1562 76.6119 68.3807L75.1715 68.1761C75.2852 67.7784 75.4727 67.446 75.734 67.179C75.9954 66.9091 76.315 66.7074 76.6928 66.5739C77.0707 66.4375 77.4883 66.3693 77.9457 66.3693C78.261 66.3693 78.5749 66.4062 78.8874 66.4801C79.1999 66.554 79.4854 66.6761 79.744 66.8466C80.0025 67.0142 80.2099 67.2429 80.3661 67.5327C80.5252 67.8224 80.6048 68.1847 80.6048 68.6193V73H79.1218V72.1009H79.0707C78.9769 72.2827 78.8448 72.4531 78.6744 72.6122C78.5067 72.7685 78.2951 72.8949 78.0394 72.9915C77.7866 73.0852 77.4897 73.1321 77.1488 73.1321ZM77.5494 71.9986C77.859 71.9986 78.1275 71.9375 78.3548 71.8153C78.582 71.6903 78.7567 71.5256 78.8789 71.321C79.0039 71.1165 79.0664 70.8935 79.0664 70.652V69.8807C79.0181 69.9205 78.9357 69.9574 78.8192 69.9915C78.7056 70.0256 78.5778 70.0554 78.4357 70.081C78.2937 70.1065 78.1531 70.1293 78.0138 70.1491C77.8746 70.169 77.7539 70.1861 77.6516 70.2003C77.4215 70.2315 77.2156 70.2827 77.0337 70.3537C76.8519 70.4247 76.7085 70.5241 76.6033 70.652C76.4982 70.777 76.4457 70.9389 76.4457 71.1378C76.4457 71.4219 76.5494 71.6364 76.7567 71.7812C76.9641 71.9261 77.2283 71.9986 77.5494 71.9986ZM85.011 73.1278C84.3576 73.1278 83.7965 72.9844 83.3278 72.6974C82.8619 72.4105 82.5025 72.0142 82.2496 71.5085C81.9996 71 81.8746 70.4148 81.8746 69.7528C81.8746 69.0881 82.0025 68.5014 82.2582 67.9929C82.5138 67.4815 82.8746 67.0838 83.3406 66.7997C83.8093 66.5128 84.3633 66.3693 85.0025 66.3693C85.5337 66.3693 86.0039 66.4673 86.413 66.6634C86.8249 66.8565 87.1531 67.1307 87.3974 67.4858C87.6417 67.8381 87.7809 68.25 87.815 68.7216H86.3406C86.2809 68.4062 86.1388 68.1435 85.9144 67.9332C85.6928 67.7202 85.396 67.6136 85.0238 67.6136C84.7085 67.6136 84.4315 67.6989 84.1928 67.8693C83.9542 68.0369 83.7681 68.2784 83.6346 68.5938C83.5039 68.9091 83.4386 69.2869 83.4386 69.7273C83.4386 70.1733 83.5039 70.5568 83.6346 70.8778C83.7653 71.196 83.9485 71.4418 84.1843 71.6151C84.4229 71.7855 84.7028 71.8707 85.0238 71.8707C85.2511 71.8707 85.4542 71.8281 85.6332 71.7429C85.815 71.6548 85.967 71.5284 86.0891 71.3636C86.2113 71.1989 86.2951 70.9986 86.3406 70.7628H87.815C87.7781 71.2259 87.6417 71.6364 87.4059 71.9943C87.1701 72.3494 86.8491 72.6278 86.4428 72.8295C86.0366 73.0284 85.5593 73.1278 85.011 73.1278ZM90.4879 70.946L90.4837 69.0838H90.7308L93.0831 66.4545H94.8857L91.9922 69.6761H91.6726L90.4879 70.946ZM89.0817 73V64.2727H90.6243V73H89.0817ZM93.1896 73L91.0589 70.0213L92.0987 68.9347L95.0348 73H93.1896ZM97.7972 73.1321C97.3825 73.1321 97.0089 73.0582 96.6765 72.9105C96.3469 72.7599 96.0856 72.5384 95.8924 72.2457C95.7021 71.9531 95.6069 71.5923 95.6069 71.1634C95.6069 70.794 95.6751 70.4886 95.8114 70.2472C95.9478 70.0057 96.1339 69.8125 96.3697 69.6676C96.6055 69.5227 96.8711 69.4134 97.1665 69.3395C97.4648 69.2628 97.7731 69.2074 98.0913 69.1733C98.4748 69.1335 98.7859 69.098 99.0245 69.0668C99.2631 69.0327 99.4364 68.9815 99.5444 68.9134C99.6552 68.8423 99.7106 68.733 99.7106 68.5852V68.5597C99.7106 68.2386 99.6154 67.9901 99.4251 67.8139C99.2347 67.6378 98.9606 67.5497 98.6026 67.5497C98.2248 67.5497 97.9251 67.6321 97.7035 67.7969C97.4847 67.9616 97.337 68.1562 97.2603 68.3807L95.82 68.1761C95.9336 67.7784 96.1211 67.446 96.3825 67.179C96.6438 66.9091 96.9634 66.7074 97.3413 66.5739C97.7191 66.4375 98.1367 66.3693 98.5941 66.3693C98.9094 66.3693 99.2234 66.4062 99.5359 66.4801C99.8484 66.554 100.134 66.6761 100.392 66.8466C100.651 67.0142 100.858 67.2429 101.015 67.5327C101.174 67.8224 101.253 68.1847 101.253 68.6193V73H99.7702V72.1009H99.7191C99.6254 72.2827 99.4933 72.4531 99.3228 72.6122C99.1552 72.7685 98.9435 72.8949 98.6879 72.9915C98.435 73.0852 98.1381 73.1321 97.7972 73.1321ZM98.1978 71.9986C98.5075 71.9986 98.7759 71.9375 99.0032 71.8153C99.2305 71.6903 99.4052 71.5256 99.5273 71.321C99.6523 71.1165 99.7148 70.8935 99.7148 70.652V69.8807C99.6665 69.9205 99.5842 69.9574 99.4677 69.9915C99.354 70.0256 99.2262 70.0554 99.0842 70.081C98.9421 70.1065 98.8015 70.1293 98.6623 70.1491C98.5231 70.169 98.4023 70.1861 98.3001 70.2003C98.07 70.2315 97.864 70.2827 97.6822 70.3537C97.5004 70.4247 97.3569 70.5241 97.2518 70.652C97.1467 70.777 97.0941 70.9389 97.0941 71.1378C97.0941 71.4219 97.1978 71.6364 97.4052 71.7812C97.6126 71.9261 97.8768 71.9986 98.1978 71.9986ZM105.651 75.5909C105.097 75.5909 104.621 75.5156 104.223 75.3651C103.826 75.2173 103.506 75.0185 103.265 74.7685C103.023 74.5185 102.855 74.2415 102.762 73.9375L104.151 73.6009C104.213 73.7287 104.304 73.8551 104.424 73.9801C104.543 74.108 104.703 74.2131 104.905 74.2955C105.11 74.3807 105.367 74.4233 105.676 74.4233C106.114 74.4233 106.476 74.3168 106.763 74.1037C107.05 73.8935 107.194 73.5469 107.194 73.0639V71.8239H107.117C107.037 71.983 106.921 72.1463 106.767 72.3139C106.617 72.4815 106.417 72.6222 106.167 72.7358C105.919 72.8494 105.608 72.9062 105.233 72.9062C104.73 72.9062 104.275 72.7884 103.865 72.5526C103.459 72.3139 103.135 71.9588 102.894 71.4872C102.655 71.0128 102.536 70.419 102.536 69.706C102.536 68.9872 102.655 68.3807 102.894 67.8864C103.135 67.3892 103.461 67.0128 103.87 66.7571C104.279 66.4986 104.735 66.3693 105.238 66.3693C105.621 66.3693 105.936 66.4347 106.184 66.5653C106.434 66.6932 106.632 66.848 106.78 67.0298C106.928 67.2088 107.04 67.3778 107.117 67.5369H107.202V66.4545H108.723V73.1065C108.723 73.6662 108.59 74.1293 108.323 74.4957C108.056 74.8622 107.691 75.1364 107.228 75.3182C106.765 75.5 106.239 75.5909 105.651 75.5909ZM105.664 71.696C105.99 71.696 106.269 71.6165 106.499 71.4574C106.729 71.2983 106.904 71.0696 107.023 70.7713C107.142 70.473 107.202 70.1151 107.202 69.6974C107.202 69.2855 107.142 68.9247 107.023 68.6151C106.907 68.3054 106.733 68.0653 106.503 67.8949C106.276 67.7216 105.996 67.6349 105.664 67.6349C105.32 67.6349 105.033 67.7244 104.803 67.9034C104.573 68.0824 104.4 68.3281 104.283 68.6406C104.167 68.9503 104.108 69.3026 104.108 69.6974C104.108 70.098 104.167 70.4489 104.283 70.75C104.402 71.0483 104.577 71.2812 104.807 71.4489C105.04 71.6136 105.326 71.696 105.664 71.696ZM113.202 73.1278C112.546 73.1278 111.979 72.9915 111.502 72.7188C111.027 72.4432 110.662 72.054 110.407 71.5511C110.151 71.0455 110.023 70.4503 110.023 69.7656C110.023 69.0923 110.151 68.5014 110.407 67.9929C110.665 67.4815 111.026 67.0838 111.489 66.7997C111.952 66.5128 112.496 66.3693 113.121 66.3693C113.525 66.3693 113.905 66.4347 114.263 66.5653C114.624 66.6932 114.942 66.892 115.218 67.1619C115.496 67.4318 115.715 67.7756 115.874 68.1932C116.033 68.608 116.113 69.1023 116.113 69.6761V70.1491H110.748V69.1094H114.634C114.631 68.8139 114.567 68.5511 114.442 68.321C114.317 68.0881 114.142 67.9048 113.918 67.7713C113.696 67.6378 113.438 67.571 113.142 67.571C112.827 67.571 112.55 67.6477 112.311 67.8011C112.073 67.9517 111.887 68.1506 111.753 68.3977C111.623 68.642 111.556 68.9105 111.553 69.2031V70.1108C111.553 70.4915 111.623 70.8182 111.762 71.0909C111.901 71.3608 112.096 71.5682 112.346 71.7131C112.596 71.8551 112.888 71.9261 113.223 71.9261C113.448 71.9261 113.651 71.8949 113.833 71.8324C114.015 71.767 114.172 71.6719 114.306 71.5469C114.439 71.4219 114.54 71.267 114.608 71.0824L116.049 71.2443C115.958 71.625 115.784 71.9574 115.529 72.2415C115.276 72.5227 114.952 72.7415 114.557 72.8977C114.162 73.0511 113.711 73.1278 113.202 73.1278Z" fill="black"/>
<g filter="url(#filter0_d_224_530)">
<circle cx="58" cy="28" r="28" fill="white"/>
<circle cx="58" cy="28" r="27.5" stroke="#647BFE"/>
</g>
<path d="M57.7144 15.19C57.422 15.19 57.1884 14.9561 57.1884 14.6639L57.1881 11.5261C57.1881 11.2336 57.422 11 57.7142 11C58.0066 11 58.2403 11.2339 58.2403 11.5261V14.6701C58.2405 14.9561 58.0066 15.19 57.7144 15.19Z" fill="#647BFE"/>
<path d="M66.2306 18.7173C66.0942 18.7173 65.9642 18.6652 65.8603 18.5613C65.6589 18.3599 65.6589 18.0221 65.8603 17.8207L68.0819 15.5991C68.2833 15.3976 68.6211 15.3976 68.8225 15.5991C69.0239 15.8005 69.0239 16.1383 68.8225 16.3397L66.6009 18.5613C66.5034 18.6655 66.367 18.7173 66.2306 18.7173Z" fill="#647BFE"/>
<path d="M72.9024 27.2401H69.7584C69.4659 27.2401 69.2323 27.0062 69.2323 26.7141C69.2323 26.4216 69.4662 26.188 69.7584 26.188H72.9024C73.1949 26.188 73.4285 26.4219 73.4285 26.7141C73.4285 27.0062 73.1949 27.2401 72.9024 27.2401Z" fill="#647BFE"/>
<path d="M45.6637 27.2401H42.5261C42.2336 27.2401 42 27.0062 42 26.7141C42 26.4216 42.2339 26.188 42.5261 26.188H45.6701C45.9626 26.188 46.1962 26.4219 46.1962 26.7141C46.19 27.0062 45.9561 27.2401 45.6637 27.2401Z" fill="#647BFE"/>
<path d="M49.1982 18.7175C49.0618 18.7175 48.9318 18.6654 48.8279 18.5615L46.6063 16.3465C46.4048 16.1451 46.4048 15.8073 46.6063 15.6059C46.8077 15.4045 47.1455 15.4045 47.3469 15.6059L49.5685 17.8275C49.7699 18.0289 49.7699 18.3667 49.5685 18.5682C49.4646 18.6656 49.3282 18.7175 49.1982 18.7175Z" fill="#647BFE"/>
<path d="M60.8582 37.7118C60.5658 37.7118 60.3321 37.4779 60.3321 37.1858C60.3321 36.088 60.9428 35.0745 61.9238 34.5484C65.0614 32.8593 66.8933 29.4749 66.588 25.9213C66.2239 21.7181 62.9238 18.3339 58.7339 17.8659C56.1616 17.5801 53.6865 18.3662 51.7764 20.0746C49.8926 21.7637 48.8076 24.1801 48.8076 26.714C48.8076 30.0009 50.6135 33.0021 53.5173 34.5614C54.4919 35.0811 55.0958 36.0881 55.0958 37.1924C55.0958 37.4848 54.8619 37.7184 54.5697 37.7184C54.2773 37.7184 54.0436 37.4845 54.0436 37.1924C54.0436 36.4778 53.654 35.8217 53.0173 35.4839C49.7693 33.7494 47.7555 30.3843 47.7555 26.7142C47.7555 23.8883 48.9637 21.186 51.0749 19.2952C53.2122 17.3853 55.9731 16.5018 58.8511 16.8267C63.5347 17.3463 67.2247 21.1335 67.6274 25.8367C67.9717 29.8058 65.9254 33.5931 62.4175 35.4772C61.7743 35.8215 61.3782 36.4775 61.3782 37.1922C61.378 37.4779 61.1441 37.7118 60.8583 37.7118L60.8582 37.7118Z" fill="#647BFE"/>
<path d="M60.332 39.8105H55.0961C54.2321 39.8105 53.524 39.1023 53.524 38.2385C53.524 37.3747 54.2322 36.6665 55.0961 36.6665H60.332C61.1959 36.6665 61.904 37.3747 61.904 38.2385C61.904 39.1023 61.2026 39.8105 60.332 39.8105ZM55.0962 37.7122C54.8105 37.7122 54.5702 37.9461 54.5702 38.2382C54.5702 38.5307 54.8041 38.7643 55.0962 38.7643H60.3322C60.6179 38.7643 60.8583 38.5304 60.8583 38.2382C60.8583 37.9458 60.6244 37.7122 60.3322 37.7122H55.0962Z" fill="#647BFE"/>
<path d="M60.332 41.9018H55.0961C54.2321 41.9018 53.524 41.1937 53.524 40.3298C53.524 39.4659 54.2322 38.7578 55.0961 38.7578H60.332C61.1959 38.7578 61.904 39.466 61.904 40.3298C61.904 41.2002 61.2026 41.9018 60.332 41.9018ZM55.0962 39.8101C54.8105 39.8101 54.5702 40.044 54.5702 40.3362C54.5702 40.6219 54.8041 40.8623 55.0962 40.8623H60.3322C60.6179 40.8623 60.8583 40.6284 60.8583 40.3362C60.8583 40.0505 60.6244 39.8101 60.3322 39.8101H55.0962Z" fill="#647BFE"/>
<path d="M58.2406 44H57.1946C55.7526 44 54.5767 42.8243 54.5767 41.382C54.5767 41.0896 54.8106 40.856 55.1027 40.856H60.3387C60.6311 40.856 60.8648 41.0899 60.8648 41.382C60.8586 42.8244 59.6827 44 58.2406 44ZM55.7072 41.9019C55.9215 42.5126 56.5061 42.9479 57.1882 42.9479H58.2342C58.9163 42.9479 59.501 42.5126 59.7152 41.9019H55.7072Z" fill="#647BFE"/>
<path d="M56.9282 29.3323H56.9086L56.6033 29.3259C53.6996 29.2349 51.2634 26.799 51.1726 23.8952L51.1661 23.5899C51.1597 23.447 51.2182 23.3041 51.3221 23.2002C51.4261 23.0963 51.5496 23.0377 51.7118 23.0442L52.0171 23.0571C54.9144 23.1481 57.3571 25.584 57.4478 28.4878L57.4543 28.7931C57.4607 28.936 57.4022 29.0788 57.2983 29.1828C57.201 29.2805 57.0646 29.3323 56.9282 29.3323ZM52.2379 24.1227C52.4393 26.2793 54.2192 28.0592 56.3759 28.2606C56.1812 26.104 54.3945 24.3238 52.2379 24.1227Z" fill="#647BFE"/>
<path d="M57.818 32.7881C57.5388 32.7881 57.3049 32.5674 57.2984 32.2878C57.2205 30.2805 56.246 28.4421 54.6286 27.2468C54.3947 27.0779 54.3493 26.7465 54.5182 26.5126C54.6872 26.2787 55.0185 26.2334 55.2524 26.4023C57.1298 27.7861 58.2601 29.9166 58.3511 32.2422C58.364 32.528 58.1368 32.775 57.8508 32.7879C57.8374 32.7882 57.8309 32.7881 57.818 32.7881Z" fill="#647BFE"/>
<path d="M58.5007 30.3778C58.3643 30.3778 58.2279 30.3257 58.1304 30.2218C58.0265 30.1178 57.9744 29.9814 57.9744 29.8321L57.9808 29.5268C58.0718 26.6231 60.5078 24.1868 63.4115 24.0961L63.7169 24.0832C63.8662 24.0703 64.0026 24.1353 64.1065 24.2392C64.2104 24.3431 64.2625 24.4795 64.2625 24.6288L64.2561 24.9342C64.165 27.8379 61.7291 30.2741 58.8254 30.3649L58.52 30.3713C58.5136 30.3778 58.5071 30.3778 58.5007 30.3778ZM63.1908 25.1678C61.0341 25.3692 59.2542 27.1491 59.0528 29.3058C61.203 29.1046 62.9893 27.3245 63.1908 25.1678Z" fill="#647BFE"/>
<path d="M57.7925 32.4767C57.7535 32.4767 57.7146 32.4702 57.6689 32.4638C57.3897 32.3988 57.2143 32.113 57.2793 31.8338C57.695 30.0799 58.7278 28.5272 60.1766 27.4555C60.4105 27.2866 60.7351 27.332 60.9108 27.5659C61.0797 27.7998 61.0343 28.1244 60.8004 28.3C59.5466 29.2225 58.6631 30.5671 58.2995 32.0809C58.2471 32.3142 58.0328 32.4767 57.7925 32.4767Z" fill="#647BFE"/>
<path d="M59.2862 32.4767H56.1422C55.8497 32.4767 55.6161 32.2428 55.6161 31.9506C55.6161 31.6582 55.85 31.4246 56.1422 31.4246H59.2862C59.5787 31.4246 59.8123 31.6585 59.8123 31.9506C59.8123 32.2428 59.572 32.4767 59.2862 32.4767Z" fill="#647BFE"/>
<defs>
<filter id="filter0_d_224_530" x="25" y="0" width="66" height="66" filterUnits="userSpaceOnUse" color-interpolation-filters="sRGB">
<feFlood flood-opacity="0" result="BackgroundImageFix"/>
<feColorMatrix in="SourceAlpha" type="matrix" values="0 0 0 0 0 0 0 0 0 0 0 0 0 0 0 0 0 0 127 0" result="hardAlpha"/>
<feOffset dy="5"/>
<feGaussianBlur stdDeviation="2.5"/>
<feComposite in2="hardAlpha" operator="out"/>
<feColorMatrix type="matrix" values="0 0 0 0 0.776471 0 0 0 0 0.811765 0 0 0 0 1 0 0 0 0.25 0"/>
<feBlend mode="normal" in2="BackgroundImageFix" result="effect1_dropShadow_224_530"/>
<feBlend mode="normal" in="SourceGraphic" in2="effect1_dropShadow_224_530" result="shape"/>
</filter>
</defs>
</svg>
